<svg id="_x30_9_Forbidden_1_" fill="#2A62FF" enable-background="new 0 0 128 128" height="512" viewBox="0 0 128 128" width="512" xmlns="http://www.w3.org/2000/svg"><g><path d="m76.9 30.7c-2-.5-4 .8-4.3 2.7-.4 2.5-1.5 11.4-1.7 12.9l8.6-8.6c0-4.5 0-4.5 0-4.7-.4-1.2-1.2-1.9-2.6-2.3z"/><path d="m60.1 22.3c-1.6.2-2.9 1.7-3 3.4-.1 1.8-.2 3.3-1.7 28.1-.1 2.3 0 3.3-1.1 3.6-.8.2-1.7-.3-1.9-1.5-.1-.6-3.4-22.6-3.8-24.9-.2-1.3-.9-2.2-2.2-2.5-2.3-.7-4.5.5-4.2 3.4.3 4.8 1.9 28.4 1.9 28.5.1 1 .4 2.7-1.1 2.9-.8.1-1.2-.3-1.6-1-1.3-2.8-4.2-9.3-7.3-16.3-1.3-2.8-5-2-5.5.6-.1.7 0 1.4.4 2.4 4.1 9.6 6.9 15.7 8.1 20.8.7 2.9 1.1 5.9 1.4 8.8l27-27c0-1-1.1-25.8-1.4-26.8-.4-1.7-2.1-2.7-4-2.5z"/><path d="m67.3 105.7c.5-.2 5.7 0 10.6-5 8.1-8.3 10.6-13.2 14.5-18.8 3.2-4.6 7.8-8.2 9.1-10.1.6-.9.6-1.7.2-2.6-.7-1.3-2.4-2-3.9-1.7-1.6.3-9.3 4.4-14.9 10.9-.9 1.1-1.7 1.8-2.6 1.4-1.3-.6-.7-2.1-.8-3.9v-16.5l-36.6 36.5c8.5 12.4 22.1 9.4 24.4 9.8z"/><path d="m64 0c-35.3 0-64 28.7-64 64s28.7 64 64 64 64-28.7 64-64-28.7-64-64-64zm-42.6 97.5c-7.6-9.7-11.6-21.3-11.6-33.5 0-29.9 24.3-54.2 54.2-54.2 12.2 0 23.8 4 33.5 11.6.6.5.7 1.5.1 2l-74.1 74.2c-.6.6-1.6.5-2.1-.1zm42.6 20.7c-12.2 0-23.8-4-33.5-11.6-.6-.5-.7-1.5-.1-2l74.1-74.1c.6-.6 1.5-.5 2 .1 7.6 9.6 11.6 21.2 11.6 33.5.1 29.8-24.2 54.1-54.1 54.1z"/></g></svg>