<svg xmlns="http://www.w3.org/2000/svg" width="30" height="30" viewBox="0 0 61.18 61.18"><g transform="translate(-1129 -1376)"><ellipse cx="30.59" cy="30.59" rx="30.59" ry="30.59" transform="translate(1129 1376)" fill="#83d032"></ellipse><g transform="translate(1070 1241.09)"><path d="M101.864,153.91H77.123A4.128,4.128,0,0,0,73,158.033V173.5a4.128,4.128,0,0,0,4.123,4.123h24.741a4.128,4.128,0,0,0,4.123-4.123V158.033A4.128,4.128,0,0,0,101.864,153.91Zm2.062,19.587a2.064,2.064,0,0,1-2.062,2.062H77.123a2.064,2.064,0,0,1-2.062-2.062V158.033a2.064,2.064,0,0,1,2.062-2.062h24.741a2.064,2.064,0,0,1,2.062,2.062Z" transform="translate(0 0)" fill="#fff"></path><path d="M100.057,159.143,89.37,167.887l-10.687-8.744a1.031,1.031,0,1,0-1.305,1.6l11.34,9.278a1.03,1.03,0,0,0,1.305,0l11.34-9.278a1.031,1.031,0,1,0-1.305-1.6Z" transform="translate(0.124 0.154)" fill="#fff"></path></g></g></svg>