<svg xmlns="http://www.w3.org/2000/svg" width="30" height="30" viewBox="0 0 61.18 61.18"><g transform="translate(-1129 -1376)"><ellipse cx="30.59" cy="30.59" rx="30.59" ry="30.59" transform="translate(1129 1376)" fill="#83d032"></ellipse><g transform="translate(891.263 1244.852)"><path d="M283.284,161.963a21.757,21.757,0,0,0-11.544-11.489.831.831,0,0,0-1.094.477.876.876,0,0,0,.462,1.129,20.063,20.063,0,0,1,10.644,10.593.84.84,0,0,0,.766.512.811.811,0,0,0,.343-.077A.877.877,0,0,0,283.284,161.963Z" transform="translate(-2.299)" fill="#fff" stroke="rgba(0,0,0,0)" stroke-width="1"></path><path d="M270.591,157.522a12.154,12.154,0,0,1,6.456,6.41.812.812,0,0,0,.742.494.785.785,0,0,0,.332-.074.846.846,0,0,0,.408-1.105,13.8,13.8,0,0,0-7.327-7.276.805.805,0,0,0-1.059.461A.846.846,0,0,0,270.591,157.522Z" transform="translate(-2.225 -0.816)" fill="#fff" stroke="rgba(0,0,0,0)" stroke-width="1"></path><path d="M276.571,166.893a1.982,1.982,0,0,0-2.994,0c-.7.694-1.4,1.388-2.088,2.094a.476.476,0,0,1-.336.18.489.489,0,0,1-.24-.074c-.453-.247-.936-.447-1.371-.718a21.716,21.716,0,0,1-5.234-4.763,12.43,12.43,0,0,1-1.876-3.005.431.431,0,0,1,.106-.553c.7-.676,1.382-1.37,2.07-2.064a1.988,1.988,0,0,0-.005-3.064c-.548-.553-1.094-1.094-1.641-1.646-.565-.565-1.123-1.135-1.694-1.695a1.993,1.993,0,0,0-2.994.007c-.706.694-1.382,1.405-2.1,2.087a3.411,3.411,0,0,0-1.071,2.3,9.733,9.733,0,0,0,.754,4.194,25.474,25.474,0,0,0,4.522,7.534,27.985,27.985,0,0,0,9.269,7.252,13.4,13.4,0,0,0,5.134,1.494c.112.006.221.009.33.009a3.669,3.669,0,0,0,2.9-1.238c.6-.671,1.276-1.283,1.911-1.923a2,2,0,0,0,.012-3.047Q278.259,168.566,276.571,166.893Zm2.143,5.206c-.21.211-.424.42-.639.628-.441.429-.9.873-1.334,1.36a1.981,1.981,0,0,1-1.629.669c-.077,0-.155,0-.237-.007a11.569,11.569,0,0,1-4.482-1.325,26.412,26.412,0,0,1-8.711-6.817,23.682,23.682,0,0,1-4.231-7.036,8,8,0,0,1-.65-3.46,1.721,1.721,0,0,1,.546-1.2c.444-.421.871-.852,1.3-1.285.272-.275.544-.55.824-.824a.337.337,0,0,1,.6,0c.376.368.745.74,1.115,1.112l.56.563c.279.282.557.56.835.839s.537.537.808.811c.313.315.3.371,0,.664l-.287.29c-.583.588-1.163,1.175-1.778,1.77a2.121,2.121,0,0,0-.472,2.417,13.9,13.9,0,0,0,2.127,3.421,23.3,23.3,0,0,0,5.655,5.135c.336.208.674.374.972.521.163.079.324.158.46.233a2.174,2.174,0,0,0,1.079.295,2.133,2.133,0,0,0,1.555-.694c.673-.69,1.357-1.369,2.069-2.075a.327.327,0,0,1,.592,0q1.682,1.673,3.357,3.351C278.985,171.712,279.013,171.8,278.714,172.1Z" transform="translate(0 -0.074)" fill="#fff" stroke="rgba(0,0,0,0)" stroke-width="1"></path></g></g></svg>