<svg xmlns="http://www.w3.org/2000/svg" width="30" height="30" viewBox="0 0 61.18 61.18"><g transform="translate(-1221 -1632)"><ellipse cx="30.59" cy="30.59" rx="30.59" ry="30.59" transform="translate(1221 1632)" fill="#83d032"></ellipse><g transform="translate(1161.886 1425.613)"><path d="M89.843,222.91A13.858,13.858,0,0,0,76,236.753c0,6.576,7.137,14.48,13.124,19.952l.738.674.719-.692c6.631-6.379,13.1-13.174,13.1-19.934A13.858,13.858,0,0,0,89.843,222.91Zm-.016,31.545c-7.552-7.052-11.7-13.316-11.7-17.7a11.713,11.713,0,1,1,23.426,0C101.555,242.45,95.866,248.6,89.827,254.455Z" transform="translate(0 0)" fill="#fff" stroke="rgba(0,0,0,0)" stroke-width="1"></path><path d="M89.324,230.91a5.324,5.324,0,1,0,5.324,5.324A5.33,5.33,0,0,0,89.324,230.91Zm0,8.518a3.194,3.194,0,1,1,3.194-3.194A3.2,3.2,0,0,1,89.324,239.428Z" transform="translate(0.518 0.518)" fill="#fff" stroke="rgba(0,0,0,0)" stroke-width="1"></path></g></g></svg>